<svg width="200" height="32" viewBox="0 0 200 32" fill="none" xmlns="http://www.w3.org/2000/svg">
<path d="M15.1156 1.67634C15.4908 0.965191 16.5092 0.965192 16.8844 1.67634L20.6609 8.83409C20.8056 9.10834 21.0693 9.29995 21.3749 9.35281L29.3493 10.7326C30.1416 10.8697 30.4563 11.8383 29.8959 12.4149L24.2555 18.2184C24.0394 18.4408 23.9386 18.7508 23.9828 19.0577L25.1348 27.0682C25.2492 27.8641 24.4253 28.4627 23.7037 28.108L16.4412 24.537C16.163 24.4001 15.837 24.4001 15.5588 24.537L8.29629 28.108C7.57474 28.4627 6.75078 27.8641 6.86523 27.0682L8.01722 19.0577C8.06136 18.7508 7.96062 18.4408 7.74451 18.2184L2.10408 12.4149C1.54368 11.8383 1.85841 10.8697 2.6507 10.7326L10.6251 9.35281C10.9307 9.29995 11.1944 9.10834 11.3391 8.83409L15.1156 1.67634Z" fill="#F3A14B"/>
<path d="M57.1156 1.67634C57.4908 0.965191 58.5092 0.965192 58.8844 1.67634L62.6609 8.83409C62.8056 9.10834 63.0693 9.29995 63.3749 9.35281L71.3493 10.7326C72.1416 10.8697 72.4563 11.8383 71.8959 12.4149L66.2555 18.2184C66.0394 18.4408 65.9386 18.7508 65.9828 19.0577L67.1348 27.0682C67.2492 27.8641 66.4253 28.4627 65.7037 28.108L58.4412 24.537C58.163 24.4001 57.837 24.4001 57.5588 24.537L50.2963 28.108C49.5747 28.4627 48.7508 27.8641 48.8652 27.0682L50.0172 19.0577C50.0614 18.7508 49.9606 18.4408 49.7445 18.2184L44.1041 12.4149C43.5437 11.8383 43.8584 10.8697 44.6507 10.7326L52.6251 9.35281C52.9307 9.29995 53.1944 9.10834 53.3391 8.83409L57.1156 1.67634Z" fill="#F3A14B"/>
<path d="M99.1156 1.67634C99.4908 0.965191 100.509 0.965192 100.884 1.67634L104.661 8.83409C104.806 9.10834 105.069 9.29995 105.375 9.35281L113.349 10.7326C114.142 10.8697 114.456 11.8383 113.896 12.4149L108.255 18.2184C108.039 18.4408 107.939 18.7508 107.983 19.0577L109.135 27.0682C109.249 27.8641 108.425 28.4627 107.704 28.108L100.441 24.537C100.163 24.4001 99.837 24.4001 99.5588 24.537L92.2963 28.108C91.5747 28.4627 90.7508 27.8641 90.8652 27.0682L92.0172 19.0577C92.0614 18.7508 91.9606 18.4408 91.7445 18.2184L86.1041 12.4149C85.5437 11.8383 85.8584 10.8697 86.6507 10.7326L94.6251 9.35281C94.9307 9.29995 95.1944 9.10834 95.3391 8.83409L99.1156 1.67634Z" fill="#F3A14B"/>
<path d="M141.116 1.67634C141.491 0.965191 142.509 0.965192 142.884 1.67634L146.661 8.83409C146.806 9.10834 147.069 9.29995 147.375 9.35281L155.349 10.7326C156.142 10.8697 156.456 11.8383 155.896 12.4149L150.255 18.2184C150.039 18.4408 149.939 18.7508 149.983 19.0577L151.135 27.0682C151.249 27.8641 150.425 28.4627 149.704 28.108L142.441 24.537C142.163 24.4001 141.837 24.4001 141.559 24.537L134.296 28.108C133.575 28.4627 132.751 27.8641 132.865 27.0682L134.017 19.0577C134.061 18.7508 133.961 18.4408 133.745 18.2184L128.104 12.4149C127.544 11.8383 127.858 10.8697 128.651 10.7326L136.625 9.35281C136.931 9.29995 137.194 9.10834 137.339 8.83409L141.116 1.67634Z" fill="#F3A14B"/>
<path d="M183.116 1.67634C183.491 0.965191 184.509 0.965192 184.884 1.67634L188.661 8.83409C188.806 9.10834 189.069 9.29995 189.375 9.35281L197.349 10.7326C198.142 10.8697 198.456 11.8383 197.896 12.4149L192.255 18.2184C192.039 18.4408 191.939 18.7508 191.983 19.0577L193.135 27.0682C193.249 27.8641 192.425 28.4627 191.704 28.1079L184.441 24.537C184.163 24.4001 183.837 24.4001 183.559 24.537L176.296 28.108C175.575 28.4627 174.751 27.8641 174.865 27.0682L176.017 19.0577C176.061 18.7508 175.961 18.4408 175.745 18.2184L170.104 12.4149C169.544 11.8383 169.858 10.8697 170.651 10.7326L178.625 9.35281C178.931 9.29995 179.194 9.10834 179.339 8.83409L183.116 1.67634Z" fill="#E6E6E6"/>
</svg>
