<svg width="17" height="15" viewBox="0 0 17 15" fill="none" xmlns="http://www.w3.org/2000/svg">
<path d="M8.05937 0.821624C8.24792 0.470037 8.75208 0.470038 8.94063 0.821625L10.9824 4.62881C11.0553 4.76482 11.187 4.85952 11.3391 4.88541L15.6373 5.61705C16.0361 5.68493 16.1934 6.17359 15.9091 6.46136L12.8787 9.5288C12.7685 9.6404 12.717 9.79728 12.7397 9.95251L13.3598 14.1945C13.4178 14.5913 13.0084 14.8916 12.6473 14.7169L8.71773 12.816C8.5802 12.7495 8.4198 12.7495 8.28227 12.816L4.35269 14.7169C3.99162 14.8916 3.5822 14.5913 3.64022 14.1945L4.2603 9.95251C4.28299 9.79728 4.23151 9.6404 4.12125 9.5288L1.09091 6.46136C0.80663 6.17359 0.963938 5.68493 1.36271 5.61705L5.66086 4.88541C5.813 4.85952 5.94465 4.76482 6.01759 4.62881L8.05937 0.821624Z" fill="#E6E6E6"/>
</svg>
