<svg width="109" height="17" viewBox="0 0 109 17" fill="none" xmlns="http://www.w3.org/2000/svg">
<path d="M8.05778 0.838168C8.24538 0.482595 8.75462 0.482596 8.94222 0.838169L10.9833 4.7067C11.0556 4.84382 11.1875 4.93963 11.3403 4.96606L15.6502 5.71178C16.0463 5.78033 16.2037 6.26465 15.9235 6.55294L12.875 9.68955C12.767 9.80073 12.7166 9.95575 12.7387 10.1092L13.3613 14.4386C13.4185 14.8366 13.0065 15.1359 12.6457 14.9585L8.72062 13.0285C8.5815 12.9601 8.4185 12.9601 8.27938 13.0285L4.35425 14.9585C3.99348 15.1359 3.5815 14.8366 3.63872 14.4386L4.26133 10.1092C4.2834 9.95574 4.23304 9.80073 4.12498 9.68955L1.07651 6.55294C0.796313 6.26464 0.953678 5.78033 1.34982 5.71178L5.65974 4.96606C5.8125 4.93963 5.94437 4.84382 6.01671 4.7067L8.05778 0.838168Z" fill="#F3A14B"/>
<path d="M31.0594 0.821624C31.2479 0.470037 31.7521 0.470038 31.9406 0.821625L33.9824 4.62881C34.0553 4.76482 34.187 4.85952 34.3391 4.88541L38.6373 5.61705C39.0361 5.68493 39.1934 6.17359 38.9091 6.46136L35.8787 9.5288C35.7685 9.6404 35.717 9.79728 35.7397 9.95251L36.3598 14.1945C36.4178 14.5913 36.0084 14.8916 35.6473 14.7169L31.7177 12.816C31.5802 12.7495 31.4198 12.7495 31.2823 12.816L27.3527 14.7169C26.9916 14.8916 26.5822 14.5913 26.6402 14.1945L27.2603 9.95251C27.283 9.79728 27.2315 9.6404 27.1213 9.5288L24.0909 6.46136C23.8066 6.17359 23.9639 5.68493 24.3627 5.61705L28.6609 4.88541C28.813 4.85952 28.9447 4.76482 29.0176 4.62881L31.0594 0.821624Z" fill="#F3A14B"/>
<path d="M54.0594 0.821624C54.2479 0.470037 54.7521 0.470038 54.9406 0.821625L56.9824 4.62881C57.0553 4.76482 57.187 4.85952 57.3391 4.88541L61.6373 5.61705C62.0361 5.68493 62.1934 6.17359 61.9091 6.46136L58.8787 9.5288C58.7685 9.6404 58.717 9.79728 58.7397 9.95251L59.3598 14.1945C59.4178 14.5913 59.0084 14.8916 58.6473 14.7169L54.7177 12.816C54.5802 12.7495 54.4198 12.7495 54.2823 12.816L50.3527 14.7169C49.9916 14.8916 49.5822 14.5913 49.6402 14.1945L50.2603 9.95251C50.283 9.79728 50.2315 9.6404 50.1213 9.5288L47.0909 6.46136C46.8066 6.17359 46.9639 5.68493 47.3627 5.61705L51.6609 4.88541C51.813 4.85952 51.9447 4.76482 52.0176 4.62881L54.0594 0.821624Z" fill="#F3A14B"/>
<path d="M77.0594 0.821624C77.2479 0.470037 77.7521 0.470038 77.9406 0.821625L79.9824 4.62881C80.0553 4.76482 80.187 4.85952 80.3391 4.88541L84.6373 5.61705C85.0361 5.68493 85.1934 6.17359 84.9091 6.46136L81.8787 9.5288C81.7685 9.6404 81.717 9.79728 81.7397 9.95251L82.3598 14.1945C82.4178 14.5913 82.0084 14.8916 81.6473 14.7169L77.7177 12.816C77.5802 12.7495 77.4198 12.7495 77.2823 12.816L73.3527 14.7169C72.9916 14.8916 72.5822 14.5913 72.6402 14.1945L73.2603 9.95251C73.283 9.79728 73.2315 9.6404 73.1213 9.5288L70.0909 6.46136C69.8066 6.17359 69.9639 5.68493 70.3627 5.61705L74.6609 4.88541C74.813 4.85952 74.9447 4.76482 75.0176 4.62881L77.0594 0.821624Z" fill="#F3A14B"/>
<path d="M100.059 0.821624C100.248 0.470037 100.752 0.470038 100.941 0.821625L102.982 4.62881C103.055 4.76482 103.187 4.85952 103.339 4.88541L107.637 5.61705C108.036 5.68493 108.193 6.17359 107.909 6.46136L104.879 9.5288C104.768 9.6404 104.717 9.79728 104.74 9.95251L105.36 14.1945C105.418 14.5913 105.008 14.8916 104.647 14.7169L100.718 12.816C100.58 12.7495 100.42 12.7495 100.282 12.816L96.3527 14.7169C95.9916 14.8916 95.5822 14.5913 95.6402 14.1945L96.2603 9.95251C96.283 9.79728 96.2315 9.6404 96.1213 9.5288L93.0909 6.46136C92.8066 6.17359 92.9639 5.68493 93.3627 5.61705L97.6609 4.88541C97.813 4.85952 97.9447 4.76482 98.0176 4.62881L100.059 0.821624Z" fill="#E6E6E6"/>
</svg>
